[Header]
FileType HTR
DataType HTRS
FileVersion 1
NumSegments 64
NumFrames 4
DataFrameRate 24
EulerRotationOrder ZYX
CalibrationUnits mm
RotationUnits Degrees
GlobalAxisofGravity Y
BoneLengthAxis Y
ScaleFactor 1.0
[SegmentNames&Hierarchy]
Hips	GLOBAL
Spine	Hips
Spine1	Spine
Spine2	Spine1
Neck	Spine2
Head	Neck
LeftEye	Head
RightEye	Head
LeftShoulder	Spine2
LeftArm	LeftShoulder
LeftForeArm	LeftArm
LeftHand	LeftForeArm
LeftHandThumb1	LeftHand
LeftHandThumb2	LeftHandThumb1
LeftHandThumb3	LeftHandThumb2
LeftHandThumb4	LeftHandThumb3
LeftHandIndex1	LeftHand
LeftHandIndex2	LeftHandIndex1
LeftHandIndex3	LeftHandIndex2
LeftHandIndex4	LeftHandIndex3
LeftHandMiddle1	LeftHand
LeftHandMiddle2	LeftHandMiddle1
LeftHandMiddle3	LeftHandMiddle2
LeftHandMiddle4	LeftHandMiddle3
LeftHandRing1	LeftHand
LeftHandRing2	LeftHandRing1
LeftHandRing3	LeftHandRing2
LeftHandRing4	LeftHandRing3
LeftHandPinky1	LeftHand
LeftHandPinky2	LeftHandPinky1
LeftHandPinky3	LeftHandPinky2
LeftHandPinky4	LeftHandPinky3
RightShoulder	Spine2
RightArm	RightShoulder
RightForeArm	RightArm
RightHand	RightForeArm
RightHandPinky1	RightHand
RightHandPinky2	RightHandPinky1
RightHandPinky3	RightHandPinky2
RightHandPinky4	RightHandPinky3
RightHandRing1	RightHand
RightHandRing2	RightHandRing1
RightHandRing3	RightHandRing2
RightHandRing4	RightHandRing3
RightHandMiddle1	RightHand
RightHandMiddle2	RightHandMiddle1
RightHandMiddle3	RightHandMiddle2
RightHandMiddle4	RightHandMiddle3
RightHandIndex1	RightHand
RightHandIndex2	RightHandIndex1
RightHandIndex3	RightHandIndex2
RightHandIndex4	RightHandIndex3
RightHandThumb1	RightHand
RightHandThumb2	RightHandThumb1
RightHandThumb3	RightHandThumb2
RightHandThumb4	RightHandThumb3
LeftUpLeg	Hips
LeftLeg	LeftUpLeg
LeftFoot	LeftLeg
LeftToeBase	LeftFoot
RightUpLeg	Hips
RightLeg	RightUpLeg
RightFoot	RightLeg
RightToeBase	RightFoot
[BasePosition]
Hips	0	0	0	0	0	0	1
Spine	0	0	0	0	0	0	1
Spine1	0	0	0	0	0	0	1
Spine2	0	0	0	0	0	0	1
Neck	0	0	0	0	0	0	1
Head	0	0	0	0	0	0	1
LeftEye	0	0	0	0	0	0	1
RightEye	0	0	0	0	0	0	1
LeftShoulder	0	0	0	0	0	0	1
LeftArm	0	0	0	0	0	0	1
LeftForeArm	0	0	0	0	0	0	1
LeftHand	0	0	0	0	0	0	1
LeftHandThumb1	0	0	0	0	0	0	1
LeftHandThumb2	0	0	0	0	0	0	1
LeftHandThumb3	0	0	0	0	0	0	1
LeftHandThumb4	0	0	0	0	0	0	1
LeftHandIndex1	0	0	0	0	0	0	1
LeftHandIndex2	0	0	0	0	0	0	1
LeftHandIndex3	0	0	0	0	0	0	1
LeftHandIndex4	0	0	0	0	0	0	1
LeftHandMiddle1	0	0	0	0	0	0	1
LeftHandMiddle2	0	0	0	0	0	0	1
LeftHandMiddle3	0	0	0	0	0	0	1
LeftHandMiddle4	0	0	0	0	0	0	1
LeftHandRing1	0	0	0	0	0	0	1
LeftHandRing2	0	0	0	0	0	0	1
LeftHandRing3	0	0	0	0	0	0	1
LeftHandRing4	0	0	0	0	0	0	1
LeftHandPinky1	0	0	0	0	0	0	1
LeftHandPinky2	0	0	0	0	0	0	1
LeftHandPinky3	0	0	0	0	0	0	1
LeftHandPinky4	0	0	0	0	0	0	1
RightShoulder	0	0	0	0	0	0	1
RightArm	0	0	0	0	0	0	1
RightForeArm	0	0	0	0	0	0	1
RightHand	0	0	0	0	0	0	1
RightHandPinky1	0	0	0	0	0	0	1
RightHandPinky2	0	0	0	0	0	0	1
RightHandPinky3	0	0	0	0	0	0	1
RightHandPinky4	0	0	0	0	0	0	1
RightHandRing1	0	0	0	0	0	0	1
RightHandRing2	0	0	0	0	0	0	1
RightHandRing3	0	0	0	0	0	0	1
RightHandRing4	0	0	0	0	0	0	1
RightHandMiddle1	0	0	0	0	0	0	1
RightHandMiddle2	0	0	0	0	0	0	1
RightHandMiddle3	0	0	0	0	0	0	1
RightHandMiddle4	0	0	0	0	0	0	1
RightHandIndex1	0	0	0	0	0	0	1
RightHandIndex2	0	0	0	0	0	0	1
RightHandIndex3	0	0	0	0	0	0	1
RightHandIndex4	0	0	0	0	0	0	1
RightHandThumb1	0	0	0	0	0	0	1
RightHandThumb2	0	0	0	0	0	0	1
RightHandThumb3	0	0	0	0	0	0	1
RightHandThumb4	0	0	0	0	0	0	1
LeftUpLeg	0	0	0	0	0	0	1
LeftLeg	0	0	0	0	0	0	1
LeftFoot	0	0	0	0	0	0	1
LeftToeBase	0	0	0	0	0	0	1
RightUpLeg	0	0	0	0	0	0	1
RightLeg	0	0	0	0	0	0	1
RightFoot	0	0	0	0	0	0	1
RightToeBase	0	0	0	0	0	0	1
[Hips]
139	5.793982506	1016.585571	16.28373337	-1.04668498	1.491117477	-5.476657867	1.0
140	5.593545914	1016.581421	16.24016762	-1.037949204	1.47699964	-5.459741592	1.0
141	5.398621082	1016.578491	16.19205475	-1.027832627	1.462773204	-5.442379475	1.0
142	5.207204819	1016.576782	16.14268875	-1.016841412	1.448860288	-5.424606323	1.0
[Spine]
139	0	101.8159943	1.315000057	0.6145973802	-1.358586788	2.919342279	1.0
140	0	101.8159943	1.315000057	0.6130220294	-1.35991621	2.919105053	1.0
141	0	101.8159943	1.315000057	0.6121178865	-1.361948609	2.918743134	1.0
142	0	101.8159943	1.315000057	0.6116846204	-1.364392877	2.918245316	1.0
[Spine1]
139	0	100.8349991	-10.00800037	-0.29442361	0.08327144384	5.938224316	1.0
140	0	100.8349991	-10.00800037	-0.2933735847	0.08269375563	5.939056873	1.0
141	0	100.8349991	-10.00800037	-0.2914986908	0.08208547533	5.939845562	1.0
142	0	100.8349991	-10.00800037	-0.2890040576	0.08147743344	5.940641403	1.0
[Spine2]
139	0	91	-13.73399925	-0.2655478716	0.7082995772	5.839838505	1.0
140	0	91	-13.73399925	-0.2645038068	0.7078627348	5.840664387	1.0
141	0	91	-13.73399925	-0.2626285255	0.707297802	5.841454983	1.0
142	0	91	-13.73399925	-0.2601287067	0.706661582	5.842261791	1.0
[Neck]
139	0	166.7169952	-25.16200066	0.9498650432	-0.284113735	-2.17365098	1.0
140	0	166.7169952	-25.16200066	0.9445916414	-0.2841477096	-2.176739454	1.0
141	0	166.7169952	-25.16200066	0.9399870634	-0.2837865651	-2.179938555	1.0
142	0	166.7169952	-25.16200066	0.9358590245	-0.2831504941	-2.183254004	1.0
[Head]
139	0	96.17900085	16.84999847	1.407788038	0.6404271126	-8.072291374	1.0
140	0	96.17900085	16.84999847	1.407694459	0.6400888562	-8.083769798	1.0
141	0	96.17900085	16.84999847	1.409984589	0.6416639686	-8.095498085	1.0
142	0	96.17900085	16.84999847	1.413765788	0.6446323991	-8.107631683	1.0
[LeftEye]
139	30.6760006	64.09500122	92.83599854	0	0	0	1.0
140	30.6760006	64.09500122	92.83599854	0	0	0	1.0
141	30.6760006	64.09500122	92.83599854	0	0	0	1.0
142	30.6760006	64.09500122	92.83599854	0	0	0	1.0
[RightEye]
139	-30.6760006	64.09500122	92.83499908	0	0	0	1.0
140	-30.6760006	64.09500122	92.83499908	0	0	0	1.0
141	-30.6760006	64.09500122	92.83499908	0	0	0	1.0
142	-30.6760006	64.09500122	92.83499908	0	0	0	1.0
[LeftShoulder]
139	45.70400238	109.4599991	-26.28000069	4.561245918	-13.65211964	3.917564392	1.0
140	45.70400238	109.4599991	-26.28000069	4.557609081	-13.66827202	3.932560682	1.0
141	45.70400238	109.4599991	-26.28000069	4.553913116	-13.68688107	3.937904596	1.0
142	45.70400238	109.4599991	-26.28000069	4.550229073	-13.70676136	3.9364748	1.0
[LeftArm]
139	105.923996	-5.24600029	-22.32099915	-2.761639118	4.797511578	-94.05323792	1.0
140	105.923996	-5.24600029	-22.32099915	-2.751986027	4.801364422	-94.06602478	1.0
141	105.923996	-5.24600029	-22.32099915	-2.743385077	4.804917336	-94.06803894	1.0
142	105.923996	-5.24600029	-22.32099915	-2.735682487	4.808321476	-94.0626297	1.0
[LeftForeArm]
139	278.414978	-0.0009999999311	0	2.897986633e-06	-14.53573418	-0.0002230967366	1.0
140	278.414978	-0.0009999999311	0	2.74142235e-06	-14.52885342	-0.0002190219529	1.0
141	278.414978	-0.0009999999311	0	2.616406618e-06	-14.52149773	-0.0002140559518	1.0
142	278.414978	-0.0009999999311	0	2.413016773e-06	-14.5139246	-0.0002085442247	1.0
[LeftHand]
139	283.2879944	0	0	-27.71898842	-0.8667299747	-9.834851265	1.0
140	283.2879944	0	0	-27.69521523	-0.8829660416	-9.842535973	1.0
141	283.2879944	0	0	-27.66980362	-0.8998916745	-9.852746964	1.0
142	283.2879944	0	0	-27.64345169	-0.9173945189	-9.864597321	1.0
[LeftHandThumb1]
139	24.6609993	-15.75	26.8239994	17.2431221	-5.979852676	8.713605881	1.0
140	24.6609993	-15.75	26.8239994	17.23810959	-5.99422884	8.70357132	1.0
141	24.6609993	-15.75	26.8239994	17.2348156	-6.003792286	8.696914673	1.0
142	24.6609993	-15.75	26.8239994	17.2327137	-6.010020733	8.692597389	1.0
[LeftHandThumb2]
139	32.29800034	-18.64699936	18.64699936	-1.463302612	30.14911079	-3.419827223	1.0
140	32.29800034	-18.64699936	18.64699936	-1.470109105	30.13153076	-3.423896313	1.0
141	32.29800034	-18.64699936	18.64699936	-1.474639654	30.1198597	-3.426623583	1.0
142	32.29800034	-18.64699936	18.64699936	-1.477594137	30.11228371	-3.428423643	1.0
[LeftHandThumb3]
139	26.52600098	-15.31499958	15.31499958	1.387079716	6.697063446	-0.6560816169	1.0
140	26.52600098	-15.31499958	15.31499958	1.382486343	6.679452896	-0.6602414846	1.0
141	26.52600098	-15.31499958	15.31499958	1.379438639	6.667755127	-0.663002193	1.0
142	26.52600098	-15.31499958	15.31499958	1.377462268	6.660157681	-0.6647932529	1.0
[LeftHandThumb4]
139	19.54599953	-11.28499985	11.28499985	0	0	0	1.0
140	19.54599953	-11.28499985	11.28499985	0	0	0	1.0
141	19.54599953	-11.28499985	11.28499985	0	0	0	1.0
142	19.54599953	-11.28499985	11.28499985	0	0	0	1.0
[LeftHandIndex1]
139	91.09299469	-5.170999527	22.60099792	-0.3820853531	4.763402462	-8.826601982	1.0
140	91.09299469	-5.170999527	22.60099792	-0.38171193	4.762982368	-8.822118759	1.0
141	91.09299469	-5.170999527	22.60099792	-0.3813941479	4.762625217	-8.81830883	1.0
142	91.09299469	-5.170999527	22.60099792	-0.3811082542	4.762304306	-8.814884186	1.0
[LeftHandIndex2]
139	36.76399994	0	0	-0.6763666272	2.857683659	-21.55326271	1.0
140	36.76399994	0	0	-0.6761446595	2.857288122	-21.54879379	1.0
141	36.76399994	0	0	-0.6759563684	2.856951952	-21.54500008	1.0
142	36.76399994	0	0	-0.6757870913	2.856650352	-21.54159164	1.0
[LeftHandIndex3]
139	28.83100128	0	0	-0.1279375106	0.9022259712	-11.14889622	1.0
140	28.83100128	0	0	-0.1278507859	0.9017857313	-11.14443588	1.0
141	28.83100128	0	0	-0.1277773678	0.901411891	-11.14064789	1.0
142	28.83100128	0	0	-0.1277115494	0.90107584	-11.13724327	1.0
[LeftHandIndex4]
139	23.92700005	0	0	0	0	0	1.0
140	23.92700005	0	0	0	0	0	1.0
141	23.92700005	0	0	0	0	0	1.0
142	23.92700005	0	0	0	0	0	1.0
[LeftHandMiddle1]
139	95.33399963	0	0	-1.641671538	8.748322487	-16.87197876	1.0
140	95.33399963	0	0	-1.641121268	8.748004913	-16.86746025	1.0
141	95.33399963	0	0	-1.640653729	8.747735977	-16.86362076	1.0
142	95.33399963	0	0	-1.640233636	8.747494698	-16.86017227	1.0
[LeftHandMiddle2]
139	36.98199844	0	0	-1.495006204	3.895894289	-34.40163422	1.0
140	36.98199844	0	0	-1.494691372	3.895567656	-34.3971405	1.0
141	36.98199844	0	0	-1.494423509	3.895289898	-34.39332581	1.0
142	36.98199844	0	0	-1.494182467	3.895040751	-34.38988876	1.0
[LeftHandMiddle3]
139	29.50900078	0	0	-0.172361806	1.580189109	-13.24343681	1.0
140	29.50900078	0	0	-0.1722518653	1.579758525	-13.23897266	1.0
141	29.50900078	0	0	-0.1721586883	1.579392791	-13.23518085	1.0
142	29.50900078	0	0	-0.1720751375	1.579063892	-13.23177242	1.0
[LeftHandMiddle4]
139	28.3390007	0	0	0	0	0	1.0
140	28.3390007	0	0	0	0	0	1.0
141	28.3390007	0	0	0	0	0	1.0
142	28.3390007	0	0	0	0	0	1.0
[LeftHandRing1]
139	91.04499817	-0.4390000105	-18.65100098	-2.654056787	11.36816216	-24.15761375	1.0
140	91.04499817	-0.4390000105	-18.65100098	-2.65161109	11.36708736	-24.13881302	1.0
141	91.04499817	-0.4390000105	-18.65100098	-2.649987698	11.36638927	-24.12632751	1.0
142	91.04499817	-0.4390000105	-18.65100098	-2.648934603	11.36595154	-24.11821556	1.0
[LeftHandRing2]
139	31.54000092	0	0	-1.033722281	3.835613489	-37.42921066	1.0
140	31.54000092	0	0	-1.032658577	3.834110022	-37.41059875	1.0
141	31.54000092	0	0	-1.031952977	3.833109856	-37.39823532	1.0
142	31.54000092	0	0	-1.031495571	3.832459211	-37.39020538	1.0
[LeftHandRing3]
139	29.37700081	0	0	-0.03375026956	1.635730147	-16.58522987	1.0
140	29.37700081	0	0	-0.03340027109	1.633927345	-16.56676483	1.0
141	29.37700081	0	0	-0.03316903114	1.632730484	-16.55450439	1.0
142	29.37700081	0	0	-0.03301997483	1.631953716	-16.54654312	1.0
[LeftHandRing4]
139	26.47500038	0	0	0	0	0	1.0
140	26.47500038	0	0	0	0	0	1.0
141	26.47500038	0	0	0	0	0	1.0
142	26.47500038	0	0	0	0	0	1.0
[LeftHandPinky1]
139	80.77799988	-4.887000084	-38.06099701	-4.423282623	16.07805634	-34.02601242	1.0
140	80.77799988	-4.887000084	-38.06099701	-4.417960644	16.07782936	-34.00671005	1.0
141	80.77799988	-4.887000084	-38.06099701	-4.414428234	16.07769203	-33.99388885	1.0
142	80.77799988	-4.887000084	-38.06099701	-4.412136555	16.07761574	-33.98556137	1.0
[LeftHandPinky2]
139	36	0	0	-1.742508888	3.631186008	-42.89974594	1.0
140	36	0	0	-1.741176248	3.62990427	-42.88121033	1.0
141	36	0	0	-1.74029243	3.629052639	-42.86889267	1.0
142	36	0	0	-1.739719391	3.628498793	-42.86089706	1.0
[LeftHandPinky3]
139	21.14200211	0	0	-0.4308069944	2.581801653	-17.77183914	1.0
140	21.14200211	0	0	-0.4300905168	2.580093622	-17.7533493	1.0
141	21.14200211	0	0	-0.4296152592	2.578958988	-17.74106979	1.0
142	21.14200211	0	0	-0.429307282	2.578222036	-17.73309326	1.0
[LeftHandPinky4]
139	19.75699997	0	0	0	0	0	1.0
140	19.75699997	0	0	0	0	0	1.0
141	19.75699997	0	0	0	0	0	1.0
142	19.75699997	0	0	0	0	0	1.0
[RightShoulder]
139	-45.70000076	109.4620056	-26.28000069	6.323161125	2.803859472	-3.415753126	1.0
140	-45.70000076	109.4620056	-26.28000069	6.324625492	2.805175781	-3.444217443	1.0
141	-45.70000076	109.4620056	-26.28000069	6.324674129	2.806817293	-3.464957476	1.0
142	-45.70000076	109.4620056	-26.28000069	6.323649406	2.80893898	-3.479763269	1.0
[RightArm]
139	-105.9280014	-5.248000145	-22.32099915	1.070888281	1.30706501	76.46352386	1.0
140	-105.9280014	-5.248000145	-22.32099915	1.078664184	1.305474758	76.49028015	1.0
141	-105.9280014	-5.248000145	-22.32099915	1.082289815	1.303848267	76.50988007	1.0
142	-105.9280014	-5.248000145	-22.32099915	1.083580732	1.30209434	76.52371216	1.0
[RightForeArm]
139	-278.414978	0	0	-8.472584909e-07	17.64990044	-1.094514937e-05	1.0
140	-278.414978	0	0	-6.56784664e-07	17.65153122	-9.680126823e-06	1.0
141	-278.414978	0	0	-2.842225229e-07	17.65315819	-6.880569799e-06	1.0
142	-278.414978	0	0	1.687974986e-07	17.65490341	-3.357484957e-06	1.0
[RightHand]
139	-283.2879944	0	0.0009999999311	-12.3214426	-6.669200897	11.81078148	1.0
140	-283.2879944	0	0.0009999999311	-12.30125999	-6.66880703	11.80391407	1.0
141	-283.2879944	0	0.0009999999311	-12.28129673	-6.668775558	11.79615974	1.0
142	-283.2879944	0	0.0009999999311	-12.26166821	-6.669028282	11.78762054	1.0
[RightHandPinky1]
139	-80.76699829	-4.885000229	-38.06000137	-4.423206806	-16.07919693	34.02632141	1.0
140	-80.76699829	-4.885000229	-38.06000137	-4.417884827	-16.07896996	34.00701904	1.0
141	-80.76699829	-4.885000229	-38.06000137	-4.414353371	-16.07883263	33.99420166	1.0
142	-80.76699829	-4.885000229	-38.06000137	-4.412062168	-16.07875633	33.98587799	1.0
[RightHandPinky2]
139	-36	0	0.0009999999311	-1.741211891	-3.629479885	42.89970398	1.0
140	-36	0	0.0009999999311	-1.739879012	-3.628197432	42.88116455	1.0
141	-36	0	0.0009999999311	-1.73899436	-3.627344847	42.86885071	1.0
142	-36	0	0.0009999999311	-1.738420367	-3.626790047	42.8608551	1.0
[RightHandPinky3]
139	-21.14200211	0	0	-0.6460387707	0.3034690619	19.37417984	1.0
140	-21.14200211	0	0	-0.6452779174	0.3051567674	19.35573006	1.0
141	-21.14200211	0	0	-0.6447740793	0.306278348	19.34347534	1.0
142	-21.14200211	0	0	-0.6444481611	0.3070073128	19.33551598	1.0
[RightHandPinky4]
139	-19.75699997	0	0	0	0	0	1.0
140	-19.75699997	0	0	0	0	0	1.0
141	-19.75699997	0	0	0	0	0	1.0
142	-19.75699997	0	0	0	0	0	1.0
[RightHandRing1]
139	-91.03599548	-0.4390000105	-18.65100098	-2.653999329	-11.36783695	24.15774345	1.0
140	-91.03599548	-0.4390000105	-18.65100098	-2.651555538	-11.36676311	24.13895035	1.0
141	-91.03599548	-0.4390000105	-18.65100098	-2.649934053	-11.36606312	24.12647247	1.0
142	-91.03599548	-0.4390000105	-18.65100098	-2.648882866	-11.36562443	24.11836815	1.0
[RightHandRing2]
139	-31.54000092	0	0	-1.033554196	-3.835128546	37.42924881	1.0
140	-31.54000092	0	0	-1.032490015	-3.83362627	37.41064453	1.0
141	-31.54000092	0	0	-1.031783938	-3.832627773	37.39828873	1.0
142	-31.54000092	0	0	-1.031326413	-3.831978083	37.3902626	1.0
[RightHandRing3]
139	-29.37700081	0	0	-0.08698767424	0.3591278791	15.06459618	1.0
140	-29.37700081	0	0	-0.08668586612	0.3609407544	15.04614353	1.0
141	-29.37700081	0	0	-0.08648681641	0.3621448874	15.03388691	1.0
142	-29.37700081	0	0	-0.08635886014	0.3629270792	15.02592754	1.0
[RightHandRing4]
139	-26.47500038	0	0	0	0	0	1.0
140	-26.47500038	0	0	0	0	0	1.0
141	-26.47500038	0	0	0	0	0	1.0
142	-26.47500038	0	0	0	0	0	1.0
[RightHandMiddle1]
139	-95.32500458	0	0	-1.641644716	-8.748092651	16.87210083	1.0
140	-95.32500458	0	0	-1.641094565	-8.747775078	16.86757851	1.0
141	-95.32500458	0	0	-1.640627623	-8.747507095	16.86373711	1.0
142	-95.32500458	0	0	-1.640207529	-8.747264862	16.86028671	1.0
[RightHandMiddle2]
139	-36.98199844	0	0	-1.494862556	-3.895446062	34.40167618	1.0
140	-36.98199844	0	0	-1.494549274	-3.895118237	34.39718628	1.0
141	-36.98199844	0	0	-1.494283199	-3.894839764	34.3933754	1.0
142	-36.98199844	0	0	-1.494044304	-3.894589424	34.38994598	1.0
[RightHandMiddle3]
139	-29.50900078	0	0	-0.2827456892	-1.771102428	16.87825394	1.0
140	-29.50900078	0	0	-0.2826083899	-1.770679712	16.87378693	1.0
141	-29.50900078	0	0	-0.2824917734	-1.770320892	16.86999512	1.0
142	-29.50900078	0	0	-0.2823869884	-1.769998312	16.86658859	1.0
[RightHandMiddle4]
139	-28.3390007	0	0.0009999999311	0	0	0	1.0
140	-28.3390007	0	0.0009999999311	0	0	0	1.0
141	-28.3390007	0	0.0009999999311	0	0	0	1.0
142	-28.3390007	0	0.0009999999311	0	0	0	1.0
[RightHandIndex1]
139	-91.08300018	-5.167999744	22.60099792	-0.3820751905	-4.763282299	8.82665062	1.0
140	-91.08300018	-5.167999744	22.60099792	-0.3817026019	-4.762861729	8.822169304	1.0
141	-91.08300018	-5.167999744	22.60099792	-0.3813861609	-4.762504578	8.81836319	1.0
142	-91.08300018	-5.167999744	22.60099792	-0.3811017573	-4.762184143	8.814941406	1.0
[RightHandIndex2]
139	-36.76399994	0	0	-0.6763098836	-2.857396841	21.5533123	1.0
140	-36.76399994	0	0	-0.676087141	-2.857001066	21.54883957	1.0
141	-36.76399994	0	0	-0.6758979559	-2.856665134	21.54504204	1.0
142	-36.76399994	0	0	-0.6757280827	-2.856363297	21.54162788	1.0
[RightHandIndex3]
139	-28.83100128	0	0	-0.2628587782	-0.25276649	14.82272148	1.0
140	-28.83100128	0	0	-0.2627438307	-0.2523325384	14.81825924	1.0
141	-28.83100128	0	0	-0.2626462877	-0.2519640326	14.81447124	1.0
142	-28.83100128	0	0	-0.262558639	-0.2516327798	14.81106567	1.0
[RightHandIndex4]
139	-23.92700005	0	0	0	0	0	1.0
140	-23.92700005	0	0	0	0	0	1.0
141	-23.92700005	0	0	0	0	0	1.0
142	-23.92700005	0	0	0	0	0	1.0
[RightHandThumb1]
139	-24.64799881	-15.72700024	26.82600021	17.24279022	5.980082035	-8.713891983	1.0
140	-24.64799881	-15.72700024	26.82600021	17.23777771	5.994457245	-8.703852654	1.0
141	-24.64799881	-15.72700024	26.82600021	17.23448372	6.00401926	-8.697188377	1.0
142	-24.64799881	-15.72700024	26.82600021	17.23238564	6.010246277	-8.692864418	1.0
[RightHandThumb2]
139	-32.29800034	-18.64699936	18.64699936	-1.463967562	-30.14777946	3.421518326	1.0
140	-32.29800034	-18.64699936	18.64699936	-1.470773101	-30.13019753	3.425590038	1.0
141	-32.29800034	-18.64699936	18.64699936	-1.475302339	-30.11852264	3.428319216	1.0
142	-32.29800034	-18.64699936	18.64699936	-1.478255272	-30.11094475	3.430120468	1.0
[RightHandThumb3]
139	-26.52600098	-15.31399918	15.31399918	1.204013705	-5.833820343	1.4518857	1.0
140	-26.52600098	-15.31399918	15.31399918	1.199675679	-5.816150665	1.455944538	1.0
141	-26.52600098	-15.31399918	15.31399918	1.196798205	-5.804415226	1.458635569	1.0
142	-26.52600098	-15.31399918	15.31399918	1.19493258	-5.796793461	1.460379362	1.0
[RightHandThumb4]
139	-19.54599953	-11.28499985	11.28499985	0	0	0	1.0
140	-19.54599953	-11.28499985	11.28499985	0	0	0	1.0
141	-19.54599953	-11.28499985	11.28499985	0	0	0	1.0
142	-19.54599953	-11.28499985	11.28499985	0	0	0	1.0
[LeftUpLeg]
139	82.07800293	-67.51699829	-15.99599934	-17.45038223	15.20742607	12.09913063	1.0
140	82.07800293	-67.51699829	-15.99599934	-17.44428253	15.21130466	12.09458923	1.0
141	82.07800293	-67.51699829	-15.99599934	-17.43888664	15.21492195	12.08900452	1.0
142	82.07800293	-67.51699829	-15.99599934	-17.43375587	15.218256	12.08263397	1.0
[LeftLeg]
139	0	-443.7049866	2.845999956	25.04661942	7.703434467	6.169900417	1.0
140	0	-443.7049866	2.845999956	25.02101517	7.706683636	6.161295891	1.0
141	0	-443.7049866	2.845999956	24.99375916	7.71035862	6.1520257	1.0
142	0	-443.7049866	2.845999956	24.96510696	7.714362144	6.142225266	1.0
[LeftFoot]
139	0	-444.2789917	-29.8219986	-4.146077156	2.65516758	-11.24852562	1.0
140	0	-444.2789917	-29.8219986	-4.131483555	2.674524784	-11.25581264	1.0
141	0	-444.2789917	-29.8219986	-4.117452621	2.695082664	-11.26303387	1.0
142	0	-444.2789917	-29.8219986	-4.103695393	2.716077328	-11.27007866	1.0
[LeftToeBase]
139	0	-87.28699493	107.1060028	-0.4845685065	-3.170623313e-05	-7.761474308e-07	1.0
140	0	-87.28699493	107.1060028	-0.4843644798	-2.75243674e-05	1.993919767e-07	1.0
141	0	-87.28699493	107.1060028	-0.4845249951	-2.163137651e-05	1.205019657e-06	1.0
142	0	-87.28699493	107.1060028	-0.4848707318	-1.476038415e-05	2.163737008e-06	1.0
[RightUpLeg]
139	-82.07800293	-67.51699829	-15.99599934	-1.909766912	-4.55613184	11.02826214	1.0
140	-82.07800293	-67.51699829	-15.99599934	-1.923925638	-4.555438995	11.02141762	1.0
141	-82.07800293	-67.51699829	-15.99599934	-1.940097451	-4.554469585	11.01394653	1.0
142	-82.07800293	-67.51699829	-15.99599934	-1.957242966	-4.55346489	11.00596619	1.0
[RightLeg]
139	0	-443.7049866	2.861999989	11.42235851	-5.616511345	2.101064205	1.0
140	0	-443.7049866	2.861999989	11.4302702	-5.608335018	2.10625124	1.0
141	0	-443.7049866	2.861999989	11.43874168	-5.600041389	2.11121726	1.0
142	0	-443.7049866	2.861999989	11.44709587	-5.591816902	2.116016626	1.0
[RightFoot]
139	0	-444.2770081	-29.83799934	-9.719819069	-0.3383466303	-7.958963871	1.0
140	0	-444.2770081	-29.83799934	-9.721106529	-0.3398546278	-7.973930836	1.0
141	0	-444.2770081	-29.83799934	-9.722203255	-0.3412970006	-7.98845911	1.0
142	0	-444.2770081	-29.83799934	-9.723074913	-0.3426902592	-8.002666473	1.0
[RightToeBase]
139	0	-87.28699493	107.1060028	-0.616024971	8.75155547e-06	-1.457845883e-06	1.0
140	0	-87.28699493	107.1060028	-0.6196536422	6.600060715e-06	-6.950539273e-07	1.0
141	0	-87.28699493	107.1060028	-0.6236080527	4.033661753e-06	2.08739749e-07	1.0
142	0	-87.28699493	107.1060028	-0.6277302504	1.422162541e-06	1.118476689e-06	1.0
[EndOfFile]
